<mxfile host="app.diagrams.net" modified="2021-11-14T11:46:00.824Z" agent="5.0 (Windows NT 10.0; Win64; x64) AppleWebKit/537.36 (KHTML, like Gecko) Chrome/95.0.4638.69 Safari/537.36" etag="KT412QYZxSU5NZ_bAFtc" version="15.7.3" type="github">
  <diagram id="pF5a-FKycylDsxD_Cnoo" name="Page-1">
    <mxGraphModel dx="1984" dy="802" grid="1" gridSize="10" guides="1" tooltips="1" connect="1" arrows="1" fold="1" page="1" pageScale="1" pageWidth="827" pageHeight="1169" math="0" shadow="0">
      <root>
        <mxCell id="0" />
        <mxCell id="1" parent="0" />
        <mxCell id="Qn4hE0vKDeL6R_fgy9Pp-1" value="" style="endArrow=none;dashed=1;html=1;dashPattern=1 3;strokeWidth=2;rounded=0;startArrow=none;" edge="1" parent="1" source="Qn4hE0vKDeL6R_fgy9Pp-10">
          <mxGeometry width="50" height="50" relative="1" as="geometry">
            <mxPoint x="400" y="760" as="sourcePoint" />
            <mxPoint x="400" y="40" as="targetPoint" />
          </mxGeometry>
        </mxCell>
        <mxCell id="Qn4hE0vKDeL6R_fgy9Pp-2" value="Arduino" style="text;html=1;strokeColor=#6c8ebf;fillColor=#dae8fc;align=center;verticalAlign=middle;whiteSpace=wrap;rounded=0;fontSize=20;fontStyle=1" vertex="1" parent="1">
          <mxGeometry x="150" y="40" width="100" height="40" as="geometry" />
        </mxCell>
        <mxCell id="Qn4hE0vKDeL6R_fgy9Pp-3" value="Raspberry" style="text;html=1;strokeColor=#82b366;fillColor=#d5e8d4;align=center;verticalAlign=middle;whiteSpace=wrap;rounded=0;fontSize=20;fontStyle=1;" vertex="1" parent="1">
          <mxGeometry x="580" y="40" width="110" height="40" as="geometry" />
        </mxCell>
        <mxCell id="Qn4hE0vKDeL6R_fgy9Pp-7" value="" style="endArrow=none;html=1;rounded=0;fontSize=20;" edge="1" parent="1">
          <mxGeometry width="50" height="50" relative="1" as="geometry">
            <mxPoint y="90" as="sourcePoint" />
            <mxPoint x="820" y="90" as="targetPoint" />
            <Array as="points">
              <mxPoint x="35" y="90" />
            </Array>
          </mxGeometry>
        </mxCell>
        <mxCell id="Qn4hE0vKDeL6R_fgy9Pp-21" style="edgeStyle=orthogonalEdgeStyle;rounded=0;orthogonalLoop=1;jettySize=auto;html=1;fontSize=16;" edge="1" parent="1" source="Qn4hE0vKDeL6R_fgy9Pp-9">
          <mxGeometry relative="1" as="geometry">
            <mxPoint x="195" y="730" as="targetPoint" />
          </mxGeometry>
        </mxCell>
        <mxCell id="Qn4hE0vKDeL6R_fgy9Pp-9" value="&lt;font style=&quot;font-size: 16px&quot;&gt;Callback_Servos()&lt;br&gt;&lt;/font&gt;" style="rounded=1;whiteSpace=wrap;html=1;fontSize=20;" vertex="1" parent="1">
          <mxGeometry x="110" y="590" width="170" height="60" as="geometry" />
        </mxCell>
        <mxCell id="Qn4hE0vKDeL6R_fgy9Pp-10" value="ROS" style="shape=doubleArrow;whiteSpace=wrap;html=1;fontSize=20;" vertex="1" parent="1">
          <mxGeometry x="280" y="567.5" width="260" height="105" as="geometry" />
        </mxCell>
        <mxCell id="Qn4hE0vKDeL6R_fgy9Pp-11" value="" style="endArrow=none;dashed=1;html=1;dashPattern=1 3;strokeWidth=2;rounded=0;" edge="1" parent="1" target="Qn4hE0vKDeL6R_fgy9Pp-10">
          <mxGeometry width="50" height="50" relative="1" as="geometry">
            <mxPoint x="410" y="980" as="sourcePoint" />
            <mxPoint x="400" y="40" as="targetPoint" />
          </mxGeometry>
        </mxCell>
        <mxCell id="Qn4hE0vKDeL6R_fgy9Pp-13" value="Servos.write()" style="rounded=1;whiteSpace=wrap;html=1;fontSize=16;" vertex="1" parent="1">
          <mxGeometry x="135" y="850" width="120" height="60" as="geometry" />
        </mxCell>
        <mxCell id="Qn4hE0vKDeL6R_fgy9Pp-23" style="edgeStyle=orthogonalEdgeStyle;rounded=0;orthogonalLoop=1;jettySize=auto;html=1;fontSize=16;" edge="1" parent="1" source="Qn4hE0vKDeL6R_fgy9Pp-22" target="Qn4hE0vKDeL6R_fgy9Pp-13">
          <mxGeometry relative="1" as="geometry" />
        </mxCell>
        <mxCell id="Qn4hE0vKDeL6R_fgy9Pp-22" value="SetPoint_Servos" style="rounded=0;whiteSpace=wrap;html=1;fontSize=16;" vertex="1" parent="1">
          <mxGeometry x="135" y="730" width="120" height="60" as="geometry" />
        </mxCell>
        <mxCell id="Qn4hE0vKDeL6R_fgy9Pp-24" value="Rasp_comm" style="rounded=1;whiteSpace=wrap;html=1;fontSize=16;" vertex="1" parent="1">
          <mxGeometry x="540" y="570" width="120" height="100" as="geometry" />
        </mxCell>
        <mxCell id="Qn4hE0vKDeL6R_fgy9Pp-25" value="Setup()&lt;br&gt;Attach_servos&lt;br&gt;Defined_values&lt;br&gt;..." style="rounded=0;whiteSpace=wrap;html=1;fontSize=16;" vertex="1" parent="1">
          <mxGeometry x="110" y="110" width="165" height="110" as="geometry" />
        </mxCell>
        <mxCell id="Qn4hE0vKDeL6R_fgy9Pp-26" value="" style="endArrow=none;dashed=1;html=1;dashPattern=1 3;strokeWidth=2;rounded=0;fontSize=16;" edge="1" parent="1">
          <mxGeometry width="50" height="50" relative="1" as="geometry">
            <mxPoint x="20" y="280" as="sourcePoint" />
            <mxPoint x="390" y="280" as="targetPoint" />
          </mxGeometry>
        </mxCell>
        <mxCell id="Qn4hE0vKDeL6R_fgy9Pp-37" style="edgeStyle=orthogonalEdgeStyle;rounded=0;orthogonalLoop=1;jettySize=auto;html=1;fontSize=16;" edge="1" parent="1" source="Qn4hE0vKDeL6R_fgy9Pp-28" target="Qn4hE0vKDeL6R_fgy9Pp-38">
          <mxGeometry relative="1" as="geometry">
            <mxPoint x="740" y="200" as="targetPoint" />
          </mxGeometry>
        </mxCell>
        <mxCell id="Qn4hE0vKDeL6R_fgy9Pp-28" value="State Machine&lt;br&gt;(HIGH LEVEL)" style="rounded=1;whiteSpace=wrap;html=1;fontSize=16;" vertex="1" parent="1">
          <mxGeometry x="520" y="100" width="120" height="60" as="geometry" />
        </mxCell>
        <mxCell id="Qn4hE0vKDeL6R_fgy9Pp-30" value="Topic (/joy)&lt;br&gt;msg_joy" style="rounded=0;whiteSpace=wrap;html=1;fontSize=16;" vertex="1" parent="1">
          <mxGeometry x="350" y="640" width="120" height="60" as="geometry" />
        </mxCell>
        <mxCell id="Qn4hE0vKDeL6R_fgy9Pp-36" style="edgeStyle=orthogonalEdgeStyle;rounded=0;orthogonalLoop=1;jettySize=auto;html=1;fontSize=16;" edge="1" parent="1" source="Qn4hE0vKDeL6R_fgy9Pp-34" target="Qn4hE0vKDeL6R_fgy9Pp-28">
          <mxGeometry relative="1" as="geometry" />
        </mxCell>
        <mxCell id="Qn4hE0vKDeL6R_fgy9Pp-47" value="" style="edgeStyle=orthogonalEdgeStyle;rounded=0;orthogonalLoop=1;jettySize=auto;html=1;fontSize=16;" edge="1" parent="1" source="Qn4hE0vKDeL6R_fgy9Pp-34" target="Qn4hE0vKDeL6R_fgy9Pp-38">
          <mxGeometry relative="1" as="geometry" />
        </mxCell>
        <mxCell id="Qn4hE0vKDeL6R_fgy9Pp-51" value="" style="edgeStyle=orthogonalEdgeStyle;rounded=0;orthogonalLoop=1;jettySize=auto;html=1;fontSize=16;" edge="1" parent="1" source="Qn4hE0vKDeL6R_fgy9Pp-34" target="Qn4hE0vKDeL6R_fgy9Pp-50">
          <mxGeometry relative="1" as="geometry">
            <Array as="points">
              <mxPoint x="601" y="400" />
              <mxPoint x="601" y="400" />
            </Array>
          </mxGeometry>
        </mxCell>
        <mxCell id="Qn4hE0vKDeL6R_fgy9Pp-34" value="Xbox_controller" style="rounded=1;whiteSpace=wrap;html=1;fontSize=16;" vertex="1" parent="1">
          <mxGeometry x="520" y="200" width="120" height="60" as="geometry" />
        </mxCell>
        <mxCell id="Qn4hE0vKDeL6R_fgy9Pp-49" style="edgeStyle=orthogonalEdgeStyle;rounded=0;orthogonalLoop=1;jettySize=auto;html=1;fontSize=16;entryX=1;entryY=0.5;entryDx=0;entryDy=0;" edge="1" parent="1" source="Qn4hE0vKDeL6R_fgy9Pp-38" target="Qn4hE0vKDeL6R_fgy9Pp-50">
          <mxGeometry relative="1" as="geometry">
            <mxPoint x="730" y="490" as="targetPoint" />
            <Array as="points">
              <mxPoint x="730" y="450" />
            </Array>
          </mxGeometry>
        </mxCell>
        <mxCell id="Qn4hE0vKDeL6R_fgy9Pp-38" value="Move_patterns" style="rounded=1;whiteSpace=wrap;html=1;fontSize=16;" vertex="1" parent="1">
          <mxGeometry x="690" y="200" width="120" height="60" as="geometry" />
        </mxCell>
        <mxCell id="Qn4hE0vKDeL6R_fgy9Pp-40" value="write_rate" style="shape=parallelogram;perimeter=parallelogramPerimeter;whiteSpace=wrap;html=1;fixedSize=1;fontSize=16;" vertex="1" parent="1">
          <mxGeometry x="255" y="850" width="120" height="60" as="geometry" />
        </mxCell>
        <mxCell id="Qn4hE0vKDeL6R_fgy9Pp-42" value="callback_queue" style="shape=parallelogram;perimeter=parallelogramPerimeter;whiteSpace=wrap;html=1;fixedSize=1;fontSize=16;" vertex="1" parent="1">
          <mxGeometry x="121.25" y="525" width="157.5" height="60" as="geometry" />
        </mxCell>
        <mxCell id="Qn4hE0vKDeL6R_fgy9Pp-44" value="Pub_queue" style="shape=parallelogram;perimeter=parallelogramPerimeter;whiteSpace=wrap;html=1;fixedSize=1;fontSize=16;" vertex="1" parent="1">
          <mxGeometry x="522.5" y="670" width="157.5" height="60" as="geometry" />
        </mxCell>
        <mxCell id="Qn4hE0vKDeL6R_fgy9Pp-46" value="baudRate" style="shape=parallelogram;perimeter=parallelogramPerimeter;whiteSpace=wrap;html=1;fixedSize=1;fontSize=16;" vertex="1" parent="1">
          <mxGeometry x="340.63" y="550" width="138.75" height="50" as="geometry" />
        </mxCell>
        <mxCell id="Qn4hE0vKDeL6R_fgy9Pp-52" style="edgeStyle=orthogonalEdgeStyle;rounded=0;orthogonalLoop=1;jettySize=auto;html=1;fontSize=16;" edge="1" parent="1" source="Qn4hE0vKDeL6R_fgy9Pp-50" target="Qn4hE0vKDeL6R_fgy9Pp-24">
          <mxGeometry relative="1" as="geometry" />
        </mxCell>
        <mxCell id="Qn4hE0vKDeL6R_fgy9Pp-50" value="SetPoint_move" style="rounded=1;whiteSpace=wrap;html=1;fontSize=16;" vertex="1" parent="1">
          <mxGeometry x="541.25" y="410" width="120" height="60" as="geometry" />
        </mxCell>
      </root>
    </mxGraphModel>
  </diagram>
</mxfile>
